<svg width="1095" height="447" viewBox="0 0 1095 447" fill="none" xmlns="http://www.w3.org/2000/svg">
<path d="M155.062 31.3119C179.666 31.3119 188.578 51.4232 188.578 69.6815C188.578 82.7347 183.876 95.788 175.21 104.399C167.091 112.493 155.308 112.22 155.308 117.725C155.308 124.783 170.234 123.993 180.705 134.43C190.383 144.077 194.839 155.849 194.839 166.804C194.839 188.197 177.807 220.571 146.396 220.571C127.532 220.571 115.75 205.419 102.409 205.419C89.0676 205.419 88.2748 218.473 66.7871 218.473C56.5626 218.473 52.3799 210.106 52.3799 203.866C52.3799 196.808 56.3166 189.259 58.1482 182.719C59.9799 175.416 62.0849 156.885 62.0849 111.185C62.0849 85.8686 62.0849 71.7798 58.1482 64.967C56.836 62.8687 53.6921 57.1459 53.6921 50.8782C53.6921 43.8202 59.4605 38.3427 67.0331 38.3427C78.023 38.3427 82.4791 45.646 101.616 45.646C116.023 45.646 130.157 31.2846 155.034 31.2846L155.062 31.3119ZM114.738 70.4717C105.306 70.4717 96.6676 77.5298 96.6676 92.9267C96.6676 101.538 100.85 112.765 111.321 112.765C123.896 112.765 131.223 101.02 131.223 88.7572C131.223 79.3556 125.728 70.4717 114.738 70.4717ZM112.906 175.416C120.752 175.416 129.665 169.148 129.665 155.577C129.665 148.791 123.896 132.604 112.633 132.604C103.721 132.604 98.2259 145.14 98.2259 157.13C98.2259 166.014 102.409 175.416 112.879 175.416H112.906Z" fill="#EA428F"/>
<path d="M332.348 51.941C332.348 61.3426 327.099 71.262 327.099 82.217C327.099 94.2347 331.035 108.324 336.011 121.895C346.755 152.443 373.984 172.8 373.984 192.366C373.984 205.419 359.33 218.473 343.338 218.473C330.762 218.473 310.341 213.24 310.341 197.08C310.341 192.121 311.926 187.161 311.926 182.201C311.926 170.184 300.143 161.572 282.866 161.572C268.213 161.572 255.883 168.358 255.883 181.411C255.883 187.924 258.507 192.366 258.507 197.08C258.507 210.379 244.374 218.473 228.9 218.473C211.103 218.473 200.359 209.589 200.359 195.772C200.359 166.532 244.1 119.551 244.1 84.3153C244.1 74.6684 238.605 63.6862 238.605 53.5216C238.605 39.678 249.349 26.3795 287.048 26.3795C320.319 26.3795 332.348 38.3972 332.348 51.9682V51.941ZM285.49 93.9622C277.097 93.9622 266.381 105.19 266.381 120.587C266.381 128.68 271.63 139.39 283.412 139.39C293.364 139.39 300.171 129.743 300.171 118.515C300.171 110.94 296.234 93.9895 285.49 93.9895V93.9622Z" fill="#EA428F"/>
<path d="M402.034 26.5974C414.09 26.5974 427.95 35.4812 447.606 35.4812C467.262 35.4812 479.045 29.2135 489.761 29.2135C498.4 29.2135 508.625 35.2087 508.625 51.9136C508.625 67.3105 498.674 85.3235 482.708 85.3235C470.133 85.3235 458.104 73.8508 445.528 73.8508C436.37 73.8508 427.731 80.9088 427.731 90.3105C427.731 96.5782 432.707 108.051 445.009 108.051C455.479 108.051 469.613 102.301 480.877 102.301C492.14 102.301 499.986 109.877 499.986 122.93C499.986 139.39 491.593 145.385 481.396 145.385C470.133 145.385 456.518 139.117 445.528 139.117C426.146 139.117 423.002 146.175 423.002 152.961C423.002 166.014 449.192 169.148 449.192 191.603C449.192 205.692 446.567 220.326 415.921 220.326C393.395 220.326 381.885 210.134 381.885 193.183C381.885 172.554 391.317 163.153 391.317 109.904C391.317 68.4006 380.054 67.8828 380.054 48.807C380.054 37.8521 389.485 26.6246 402.061 26.6246L402.034 26.5974Z" fill="#EA428F"/>
<path d="M668.361 117.725C668.361 159.746 644.277 216.129 589.792 216.129C531.124 216.129 513.054 171.219 513.054 126.337C513.054 55.3201 540.282 25.0441 597.638 24.5264C639.028 24.5264 668.361 58.7265 668.361 117.725ZM557.068 107.261C557.068 128.408 563.356 147.729 576.451 147.729C594.002 147.729 602.641 126.854 602.641 105.953C602.641 85.0511 594.795 63.9315 579.075 63.9315C563.356 63.9315 557.068 85.8686 557.068 107.261Z" fill="#EA428F"/>
<path d="M54.457 363.312C54.457 311.889 84.939 224.958 136.608 224.958C157.494 224.958 159.545 245.315 161.568 264.363C162.142 270.113 167.09 287.854 172.312 287.854C187.402 287.854 190.601 237.221 225.129 237.221C264.906 237.221 277.673 311.099 277.673 378.464C277.673 405.088 265.48 435.364 232.401 435.364C213.237 435.364 198.447 422.038 198.447 404.025C198.447 375.575 230.678 371.133 230.678 336.66C230.678 314.723 221.958 310.309 215.287 310.309C178.435 310.309 205.418 366.964 160.146 366.964C133.437 366.964 127.34 355.736 127.34 339.821C127.34 326.25 131.687 310.854 131.687 300.662C131.687 293.876 130.238 289.952 123.841 289.952C108.45 289.952 103.529 310.581 103.529 322.572C103.529 341.893 111.074 363.285 111.074 380.78C111.074 394.869 104.404 407.404 88.1376 407.404C65.8023 407.404 54.457 396.449 54.457 363.285V363.312Z" fill="#EA428F"/>
<path d="M365.591 254.198C365.591 294.911 343.255 318.429 343.255 341.647C343.255 367.481 354.874 381.325 376.936 381.325C400.747 381.325 407.992 366.446 407.992 341.375C407.992 324.152 386.504 287.853 386.504 260.439C386.504 243.461 395.799 228.064 420.458 228.064C457.31 228.064 466.031 268.778 466.031 305.594C466.031 368.762 464.008 419.667 374.886 419.667C300.28 419.667 284.615 366.418 284.615 311.071C284.615 278.697 292.161 227.547 332.785 227.547C355.12 227.547 365.591 234.332 365.591 254.171V254.198Z" fill="#EA428F"/>
<path d="M615.217 223.378C637.552 223.378 649.471 236.949 649.471 254.962C649.471 275.836 636.978 307.175 636.978 352.848C636.978 394.351 650.62 403.235 650.62 411.846C650.62 416.016 644.523 418.904 638.427 418.904C625.933 418.904 608.519 410.293 594.877 398.03C566.145 371.923 554.526 301.452 527.543 301.452C517.975 301.452 514.476 309.273 514.476 317.121C514.476 355.763 543.782 365.683 543.782 392.307C543.782 408.767 523.169 417.896 506.63 417.896C483.693 417.896 473.25 406.669 473.25 395.196C473.25 384.486 479.62 372.496 485.743 362.304C491.266 353.42 499.385 339.331 499.385 305.921C499.385 297.31 498.51 287.908 496.761 278.507C492.113 250.302 476.722 247.44 476.722 236.731C476.722 230.19 485.142 226.539 495.011 226.539C523.169 226.539 551.601 247.168 578.884 306.412C585.282 320.255 591.077 339.304 606.742 339.304C613.713 339.304 618.634 333.826 618.634 320.501C618.634 291.778 579.459 286.028 579.459 252.891C579.459 233.842 595.998 223.405 615.162 223.405L615.217 223.378Z" fill="#EA428F"/>
<path d="M672.353 390.808C672.353 382.088 673.501 374.458 678.668 362.985C686.978 343.909 690.696 310.091 690.724 206.455C690.724 125.737 685.584 84.8329 678.121 65.2121C674.676 55.9467 672.954 47.2264 672.954 39.5688C672.954 26.4883 677.246 15.5606 686.705 15.5606C691.571 15.5606 696.437 18.8307 700.183 25.371C713.36 48.2892 715.929 60.2797 727.411 60.2797C747.478 60.2797 768.965 14.4706 795.62 14.4706C841.767 14.4706 850.077 72.2702 850.05 206.455C850.05 349.877 831.132 417.515 795.593 417.515C774.679 417.515 755.46 390.781 750.321 381.516C747.177 375.521 736.57 355.872 726.837 355.872C708.794 355.872 713.36 416.397 687.279 416.397C676.098 416.397 672.38 398.929 672.38 390.754L672.353 390.808ZM720.522 126.854C720.522 144.295 724.541 168.303 724.514 196.671C724.514 224.495 720.796 249.021 720.796 267.579C720.796 287.772 725.088 304.668 742.01 304.668C765.521 304.668 774.679 253.953 774.679 201.604C774.679 132.877 764.646 99.058 740.862 99.058C725.963 99.058 720.522 107.778 720.522 126.881V126.854Z" fill="#EA428F"/>
<path d="M1027.99 206.509C1027.99 294.312 1001.61 412.119 942.015 412.119C877.825 412.119 858.06 318.293 858.06 224.495C858.06 76.14 887.885 12.8901 950.626 11.8001C995.898 11.8001 1027.99 83.2525 1027.99 206.509ZM906.202 184.681C906.202 228.855 913.064 269.214 927.389 269.214C946.58 269.214 956.039 225.585 956.067 181.956C956.094 138.327 947.482 94.1529 930.287 94.1529C913.966 94.1529 906.202 139.962 906.202 184.681Z" fill="#EA428F"/>
</svg>
