<svg width="106" height="119" viewBox="0 0 106 119" fill="none" xmlns="http://www.w3.org/2000/svg">
<mask id="mask0_69_2404" style="mask-type:luminance" maskUnits="userSpaceOnUse" x="0" y="0" width="106" height="119">
<path d="M0 0H106V119H0V0Z" fill="white"/>
</mask>
<g mask="url(#mask0_69_2404)">
<path d="M93.3151 -0.202148H12.366C5.54543 -0.202148 -0.000976562 4.77542 -0.000976562 10.8964V107.757C-0.000976562 113.878 5.54543 118.855 12.366 118.855H93.3151C100.136 118.855 105.682 113.878 105.682 107.757V10.8964C105.682 4.77542 100.136 -0.202148 93.3151 -0.202148ZM98.9364 107.757C98.9364 110.539 96.4162 112.802 93.3151 112.802H12.366C9.26645 112.802 6.74465 110.539 6.74465 107.757V10.8964C6.74465 8.11297 9.26645 5.85146 12.366 5.85146H93.3151C96.4162 5.85146 98.9364 8.11297 98.9364 10.8964V107.757Z" fill="#EED505"/>
</g>
<path d="M38.7089 42.1751C42.0271 42.1751 45.1829 40.9209 47.5938 38.651C48.8789 37.4375 48.8274 35.5211 47.4783 34.3707C46.1338 33.2161 43.993 33.2666 42.7095 34.4731C41.5836 35.5379 40.1627 36.1201 38.7089 36.1201C35.2549 36.1201 32.4474 32.9523 32.4474 29.0578C32.4474 25.1647 35.2549 21.9955 38.7089 21.9955C40.5671 21.9955 41.9069 22.8906 42.7064 23.6383C43.993 24.849 46.1276 24.8953 47.4751 23.7407C48.8211 22.5861 48.8727 20.6711 47.5844 19.4604C45.1719 17.1905 42.0209 15.9419 38.7089 15.9419C31.537 15.9419 25.7002 21.8257 25.7002 29.0578C25.7002 36.2899 31.537 42.1751 38.7089 42.1751Z" fill="#EED505"/>
<path d="M63.2001 40.2708C63.7122 41.4212 64.9536 42.1746 66.3324 42.1746C67.7112 42.1746 68.951 41.4212 69.4632 40.2708L78.4574 20.0912C79.1491 18.5382 78.309 16.7761 76.5773 16.1574C74.855 15.5542 72.8891 16.2921 72.1958 17.8451L66.3324 30.9961L60.469 17.8451C59.7788 16.2879 57.8145 15.5514 56.0859 16.1574C54.3558 16.7761 53.5142 18.5382 54.2059 20.0912L63.2001 40.2708Z" fill="#EED505"/>
<path d="M84.3199 56.2993H21.3591C19.4978 56.2993 17.9863 57.6559 17.9863 59.3268C17.9863 60.9977 19.4978 62.3529 21.3591 62.3529H84.3199C86.1827 62.3529 87.6927 60.9977 87.6927 59.3268C87.6927 57.6559 86.1827 56.2993 84.3199 56.2993Z" fill="#EED505"/>
<path d="M84.3199 76.479H21.3591C19.4978 76.479 17.9863 77.8342 17.9863 79.5051C17.9863 81.1774 19.4978 82.5326 21.3591 82.5326H84.3199C86.1827 82.5326 87.6927 81.1774 87.6927 79.5051C87.6927 77.8342 86.1827 76.479 84.3199 76.479Z" fill="#EED505"/>
<path d="M52.8403 96.6587H21.3591C19.4978 96.6587 17.9863 98.0139 17.9863 99.6848C17.9863 101.356 19.4978 102.712 21.3591 102.712H52.8403C54.7016 102.712 56.2131 101.356 56.2131 99.6848C56.2131 98.0139 54.7016 96.6587 52.8403 96.6587Z" fill="#EED505"/>
</svg>
