<svg width="148" height="103" viewBox="0 0 148 103" fill="none" xmlns="http://www.w3.org/2000/svg">
<mask id="mask0_69_2394" style="mask-type:luminance" maskUnits="userSpaceOnUse" x="0" y="0" width="148" height="103">
<path d="M0 0H148V102.05H0V0Z" fill="white"/>
</mask>
<g mask="url(#mask0_69_2394)">
<path d="M134.807 0H13.1924C5.96247 0 0.0449219 6.12264 0.0449219 13.6067V88.4436C0.0449219 95.9277 5.96247 102.05 13.1924 102.05H134.807C142.037 102.05 147.953 95.9277 147.953 88.4436V13.6067C147.953 6.12264 142.037 0 134.807 0ZM13.1924 6.80335H134.807C135.3 6.80335 135.629 6.80335 136.121 6.97306L78.1085 56.6368C75.6426 58.6789 72.1928 58.6789 69.7268 56.6368L11.8782 6.97306C12.371 6.80335 12.6996 6.80335 13.1924 6.80335ZM6.61957 88.4436V13.6067C6.61957 12.926 6.78385 12.2453 6.94812 11.5646L52.9634 51.0251L6.94812 90.4839C6.78385 89.8031 6.61957 89.1243 6.61957 88.4436ZM134.807 95.2469H13.1924C12.6996 95.2469 12.371 95.2469 11.8782 95.0772L58.0578 55.447L65.4538 61.9109C67.9198 63.9511 70.8767 64.9713 73.8355 64.9713C76.7943 64.9713 79.7513 63.9511 82.2172 61.9109L89.6114 55.447L135.793 95.0772C135.629 95.2469 135.3 95.2469 134.807 95.2469ZM141.38 88.4436C141.38 89.1243 141.216 89.8031 141.051 90.4839L95.0361 51.0251L141.051 11.5646C141.216 12.2453 141.38 12.926 141.38 13.6067V88.4436Z" fill="#EED505"/>
</g>
</svg>
