<svg width="216" height="32" viewBox="0 0 216 32" fill="none" xmlns="http://www.w3.org/2000/svg">
<mask id="mask0_820_2747" style="mask-type:luminance" maskUnits="userSpaceOnUse" x="97" y="7" width="24" height="25">
<path d="M97.0362 7.78992H120.743V31.4964H97.0362V7.78992Z" fill="white"/>
</mask>
<g mask="url(#mask0_820_2747)">
<mask id="mask1_820_2747" style="mask-type:luminance" maskUnits="userSpaceOnUse" x="97" y="7" width="24" height="25">
<path d="M108.889 7.78992C102.342 7.78992 97.0362 13.0954 97.0362 19.6431C97.0362 26.1909 102.342 31.4964 108.889 31.4964C115.434 31.4964 120.743 26.1909 120.743 19.6431C120.743 13.0954 115.434 7.78992 108.889 7.78992Z" fill="white"/>
</mask>
<g mask="url(#mask1_820_2747)">
<mask id="mask2_820_2747" style="mask-type:luminance" maskUnits="userSpaceOnUse" x="96" y="7" width="25" height="26">
<path d="M120.93 7.27649H96.9037V32.0098H120.93V7.27649Z" fill="white"/>
</mask>
<g mask="url(#mask2_820_2747)">
<mask id="mask3_820_2747" style="mask-type:luminance" maskUnits="userSpaceOnUse" x="97" y="7" width="24" height="25">
<path d="M97.0362 7.78992H120.743V31.4964H97.0362V7.78992Z" fill="white"/>
</mask>
<g mask="url(#mask3_820_2747)">
<mask id="mask4_820_2747" style="mask-type:luminance" maskUnits="userSpaceOnUse" x="97" y="7" width="24" height="25">
<path d="M108.889 7.78992C102.342 7.78992 97.0362 13.0954 97.0362 19.6431C97.0362 26.1909 102.342 31.4964 108.889 31.4964C115.434 31.4964 120.743 26.1909 120.743 19.6431C120.743 13.0954 115.434 7.78992 108.889 7.78992Z" fill="white"/>
</mask>
<g mask="url(#mask4_820_2747)">
<path d="M97.0362 7.78992H120.743V31.4964H97.0362V7.78992Z" fill="#FF5900"/>
</g>
</g>
</g>
</g>
</g>
<path d="M21.465 7.57458V30.7731H14.1996V21.73H7.27646V30.7731H0V7.57458H7.27646V15.9221H14.1996V7.57458H21.465Z" fill="#FF5900"/>
<path d="M33.3268 31.005C31.1461 31.005 29.1448 30.4943 27.3202 29.4702C25.4928 28.4406 24.0436 27.019 22.9698 25.2081C21.9015 23.3918 21.3687 21.3435 21.3687 19.069C21.3687 16.8027 21.9015 14.7627 22.9698 12.9519C24.0436 11.1355 25.4928 9.71667 27.3202 8.70083C29.1448 7.685 31.1461 7.17708 33.3268 7.17708C35.5131 7.17708 37.5116 7.685 39.3225 8.70083C41.1388 9.71667 42.5798 11.1355 43.6398 12.9519C44.6998 14.7627 45.2298 16.8027 45.2298 19.069C45.2298 21.3435 44.6998 23.3918 43.6398 25.2081C42.5798 27.019 41.1361 28.4406 39.3114 29.4702C37.484 30.4943 35.491 31.005 33.3268 31.005ZM33.3268 24.2144C34.7678 24.2144 35.883 23.7506 36.6725 22.8231C37.4592 21.8956 37.8539 20.6452 37.8539 19.069C37.8539 17.479 37.4592 16.2202 36.6725 15.2927C35.883 14.3597 34.7678 13.8904 33.3268 13.8904C31.8693 13.8904 30.7458 14.3597 29.9591 15.2927C29.1697 16.2202 28.7777 17.479 28.7777 19.069C28.7777 20.6452 29.1697 21.8956 29.9591 22.8231C30.7458 23.7506 31.8693 24.2144 33.3268 24.2144ZM29.5948 5.64229C28.8053 5.64229 28.1428 5.37453 27.6073 4.83625C27.0773 4.30073 26.8123 3.64099 26.8123 2.85979C26.8123 2.05099 27.0773 1.37469 27.6073 0.828125C28.1428 0.276042 28.8053 0 29.5948 0C30.4256 0 31.1075 0.270521 31.6375 0.806042C32.173 1.34432 32.4435 2.02891 32.4435 2.85979C32.4435 3.64099 32.1702 4.30073 31.6264 4.83625C31.0799 5.37453 30.4036 5.64229 29.5948 5.64229ZM36.9706 5.64229C36.1811 5.64229 35.5186 5.37453 34.9831 4.83625C34.4448 4.30073 34.177 3.64099 34.177 2.85979C34.177 2.05099 34.4448 1.37469 34.9831 0.828125C35.5186 0.276042 36.1811 0 36.9706 0C37.8015 0 38.4833 0.270521 39.0133 0.806042C39.5488 1.34432 39.8193 2.02891 39.8193 2.85979C39.8193 3.64099 39.5461 4.30073 39.0023 4.83625C38.4557 5.37453 37.7794 5.64229 36.9706 5.64229Z" fill="#FF5900"/>
<path d="M61.3199 7.57458V22.5471C61.3199 25.3241 60.5911 27.4275 59.1336 28.8629C57.6817 30.2928 55.6472 31.005 53.0276 31.005C50.2065 31.005 47.965 30.2293 46.3032 28.6752C44.647 27.1239 43.8188 24.8631 43.8188 21.8956H50.9959C50.9959 22.8314 51.145 23.4911 51.4486 23.8721C51.7578 24.2558 52.1719 24.4463 52.6963 24.4463C53.1297 24.4463 53.4693 24.3082 53.7122 24.0267C53.9551 23.7396 54.0766 23.2482 54.0766 22.5471V7.57458H61.3199Z" fill="#FF5900"/>
<path d="M70.8223 31.005C68.0454 31.005 65.757 30.3591 63.9544 29.0617C62.1491 27.7588 61.1719 25.8486 61.0173 23.3311H68.7575C68.8597 24.6643 69.4476 25.3296 70.5242 25.3296C70.9134 25.3296 71.2447 25.2385 71.518 25.0536C71.7885 24.8714 71.9265 24.5788 71.9265 24.1813C71.9265 23.6375 71.6311 23.1958 71.0432 22.8563C70.4524 22.5195 69.536 22.133 68.2938 21.6969C66.8059 21.1752 65.5775 20.6645 64.6059 20.1621C63.6342 19.6542 62.7978 18.9227 62.0994 17.9648C61.3983 17.0014 61.0615 15.7648 61.0836 14.2548C61.0836 12.7476 61.47 11.4613 62.243 10.4013C63.0214 9.34126 64.0814 8.54074 65.423 7.99418C66.77 7.45037 68.2828 7.17709 69.9611 7.17709C72.8016 7.17709 75.0568 7.83407 76.7296 9.14251C78.3997 10.4537 79.2803 12.3004 79.3686 14.6854H71.54C71.518 14.0312 71.3523 13.5647 71.0432 13.2831C70.7395 12.9961 70.3696 12.8525 69.928 12.8525C69.6243 12.8525 69.3759 12.9574 69.1771 13.1617C68.9784 13.3687 68.879 13.6558 68.879 14.0229C68.879 14.5529 69.1688 14.9891 69.7513 15.3258C70.331 15.6654 71.2557 16.0739 72.5228 16.5515C73.9858 17.098 75.1948 17.6225 76.1444 18.1304C77.094 18.6328 77.9166 19.3312 78.6178 20.2283C79.3161 21.12 79.6667 22.2434 79.6667 23.5961C79.6667 25.0177 79.3161 26.2902 78.6178 27.4165C77.9166 28.5427 76.9008 29.4233 75.5703 30.0554C74.237 30.6903 72.6553 31.005 70.8223 31.005Z" fill="#FF5900"/>
<path d="M93.5292 30.7731L86.7717 20.7142V30.7731H79.4952V7.57458H86.7717V17.3354L93.4298 7.57458H101.656L93.6617 18.6825L102.175 30.7731H93.5292Z" fill="#FF5900"/>
<path d="M125.905 25.2633H132.917V30.7731H118.629V7.57458H125.905V25.2633Z" fill="#FF5900"/>
<path d="M139.766 13.3715V16.2202H146.976V21.6969H139.766V24.9763H147.959V30.7731H132.49V7.57458H147.959V13.3715H139.766Z" fill="#FF5900"/>
<path d="M170.249 30.7731H162.972L155.265 19.1021V30.7731H147.989V7.57458H155.265L162.972 19.4333V7.57458H170.249V30.7731Z" fill="#FF5900"/>
<path d="M180.468 7.57458C182.889 7.57458 185.012 8.0687 186.839 9.05417C188.664 10.0341 190.066 11.4005 191.046 13.1506C192.031 14.8952 192.525 16.8799 192.525 19.1021C192.525 21.3104 192.031 23.3034 191.046 25.0756C190.066 26.8423 188.664 28.2335 186.839 29.2494C185.012 30.2652 182.889 30.7731 180.468 30.7731H170.795V7.57458H180.468ZM179.816 24.2806C181.451 24.2806 182.745 23.8362 183.703 22.9446C184.667 22.0474 185.15 20.7666 185.15 19.1021C185.15 17.4458 184.667 16.1705 183.703 15.2706C182.745 14.3735 181.451 13.9235 179.816 13.9235H178.072V24.2806H179.816Z" fill="#FF5900"/>
<path d="M206.456 30.7731L199.699 20.7142V30.7731H192.422V7.57458H199.699V17.3354L206.357 7.57458H214.583L206.589 18.6825L215.102 30.7731H206.456Z" fill="#FF5900"/>
<mask id="mask5_820_2747" style="mask-type:luminance" maskUnits="userSpaceOnUse" x="101" y="13" width="16" height="13">
<path d="M101.177 13.4543H116.547V25.6443H101.177V13.4543Z" fill="white"/>
</mask>
<g mask="url(#mask5_820_2747)">
<path fill-rule="evenodd" clip-rule="evenodd" d="M116.232 14.3956C116.514 14.8814 116.599 15.613 113.005 17.6888C112.903 17.7468 112.798 17.8075 112.693 17.8655L111.04 25.1309L109.85 25.8155L109.718 19.4527C107.791 20.4244 106.93 20.6756 105.671 21.0951L105.138 24.1758L104.081 24.7858L103.774 21.6113L101.177 19.7563L102.234 19.149L105.127 20.209C106.112 19.334 106.764 18.7074 108.577 17.5204L103.17 14.2465L104.36 13.5592L111.423 15.7427C111.539 15.6737 111.655 15.6074 111.766 15.5439C115.36 13.4681 115.951 13.907 116.232 14.3956Z" fill="#5DC2FC"/>
</g>
</svg>
