<svg width="270" height="82" viewBox="0 0 270 82" fill="none" xmlns="http://www.w3.org/2000/svg">
<g clip-path="url(#clip0_2019_4256)">
<mask id="mask0_2019_4256" style="mask-type:luminance" maskUnits="userSpaceOnUse" x="0" y="0" width="270" height="82">
<path d="M270 0H0V82H270V0Z" fill="white" style="fill:white;fill-opacity:1;"/>
</mask>
<g mask="url(#mask0_2019_4256)">
<path d="M99.9794 41H93.1127V6.69043H99.9794V23.8452L112.756 6.69043H120.556L109.717 21.1655L120.556 41H112.756L105.219 27.123L99.9794 34.1333V41ZM150.798 27.2905C150.798 29.1886 150.439 30.9751 149.721 32.6499C149.003 34.3088 148.022 35.7603 146.778 37.0044C145.534 38.2326 144.075 39.2056 142.4 39.9233C140.741 40.6411 138.963 41 137.064 41C135.166 41 133.38 40.6411 131.705 39.9233C130.046 39.2056 128.595 38.2326 127.351 37.0044C126.122 35.7603 125.149 34.3088 124.432 32.6499C123.714 30.9751 123.355 29.1886 123.355 27.2905V6.69043H130.198V27.2905C130.198 28.2316 130.373 29.1169 130.724 29.9463C131.091 30.7757 131.585 31.5015 132.207 32.1235C132.83 32.7456 133.555 33.2401 134.385 33.6069C135.23 33.9578 136.123 34.1333 137.064 34.1333C138.005 34.1333 138.891 33.9578 139.72 33.6069C140.566 33.2401 141.299 32.7456 141.921 32.1235C142.543 31.5015 143.03 30.7757 143.381 29.9463C143.748 29.1169 143.931 28.2316 143.931 27.2905V6.69043H150.798V27.2905ZM180.777 41H156.755V6.69043H163.622V34.1333H180.777V41ZM194.032 41H187.189V13.5571H176.877V6.69043H204.32V13.5571H194.032V41ZM235.017 27.2905C235.017 29.1886 234.658 30.9751 233.94 32.6499C233.222 34.3088 232.241 35.7603 230.997 37.0044C229.753 38.2326 228.293 39.2056 226.619 39.9233C224.96 40.6411 223.181 41 221.283 41C219.385 41 217.599 40.6411 215.924 39.9233C214.265 39.2056 212.813 38.2326 211.569 37.0044C210.341 35.7603 209.368 34.3088 208.65 32.6499C207.933 30.9751 207.574 29.1886 207.574 27.2905V6.69043H214.416V27.2905C214.416 28.2316 214.592 29.1169 214.943 29.9463C215.31 30.7757 215.804 31.5015 216.426 32.1235C217.048 32.7456 217.774 33.2401 218.603 33.6069C219.449 33.9578 220.342 34.1333 221.283 34.1333C222.224 34.1333 223.109 33.9578 223.939 33.6069C224.784 33.2401 225.518 32.7456 226.14 32.1235C226.762 31.5015 227.249 30.7757 227.6 29.9463C227.966 29.1169 228.15 28.2316 228.15 27.2905V6.69043H235.017V27.2905ZM247.841 13.5571V27.2905H254.707C255.649 27.2905 256.534 27.1151 257.363 26.7642C258.193 26.3973 258.918 25.9028 259.54 25.2808C260.163 24.6587 260.649 23.9329 261 23.1035C261.367 22.2581 261.55 21.3649 261.55 20.4238C261.55 19.4827 261.367 18.5975 261 17.7681C260.649 16.9227 260.163 16.189 259.54 15.5669C258.918 14.9448 258.193 14.4583 257.363 14.1074C256.534 13.7406 255.649 13.5571 254.707 13.5571H247.841ZM247.841 41H240.974V6.69043H254.707C255.968 6.69043 257.18 6.85791 258.344 7.19287C259.509 7.51188 260.593 7.97445 261.598 8.58057C262.619 9.17074 263.544 9.88851 264.373 10.7339C265.219 11.5633 265.937 12.4884 266.527 13.5093C267.133 14.5301 267.595 15.6227 267.914 16.7871C268.249 17.9515 268.417 19.1637 268.417 20.4238C268.417 21.6042 268.265 22.7526 267.962 23.8691C267.675 24.9857 267.253 26.0464 266.694 27.0513C266.152 28.0562 265.482 28.9813 264.685 29.8267C263.887 30.672 262.994 31.4058 262.005 32.0278L265.809 41H258.512L255.521 34.0854L247.841 34.1333V41Z" fill="#E7E3D4" style="fill:#E7E3D4;fill:color(display-p3 0.9059 0.8902 0.8314);fill-opacity:1;"/>
<path d="M90.7202 57.8223C90.7202 56.8662 90.9028 55.9692 91.268 55.1313C91.6332 54.2935 92.1274 53.563 92.7504 52.9399C93.3842 52.3062 94.1201 51.8066 94.9579 51.4414C95.7958 51.0762 96.6928 50.8936 97.6489 50.8936H108.251V55.5181H97.6489C97.3266 55.5181 97.0258 55.5771 96.7465 55.6953C96.4672 55.8135 96.2202 55.98 96.0053 56.1948C95.8012 56.3989 95.6401 56.6406 95.5219 56.9199C95.4037 57.1992 95.3447 57.5 95.3447 57.8223C95.3447 58.1445 95.4037 58.4507 95.5219 58.7407C95.6401 59.02 95.8012 59.2671 96.0053 59.4819C96.2202 59.686 96.4672 59.8472 96.7465 59.9653C97.0258 60.0835 97.3266 60.1426 97.6489 60.1426H102.273C103.229 60.1426 104.126 60.3252 104.964 60.6904C105.813 61.0449 106.549 61.5391 107.172 62.1729C107.806 62.7959 108.3 63.5317 108.654 64.3804C109.019 65.2183 109.202 66.1152 109.202 67.0713C109.202 68.0273 109.019 68.9243 108.654 69.7622C108.3 70.6001 107.806 71.3359 107.172 71.9697C106.549 72.5928 105.813 73.0869 104.964 73.4521C104.126 73.8174 103.229 74 102.273 74H92.0092V69.3755H102.273C102.596 69.3755 102.896 69.3164 103.176 69.1982C103.455 69.0801 103.697 68.9189 103.901 68.7148C104.116 68.5 104.282 68.2529 104.4 67.9736C104.518 67.6943 104.578 67.3936 104.578 67.0713C104.578 66.749 104.518 66.4482 104.4 66.1689C104.282 65.8896 104.116 65.6479 103.901 65.4438C103.697 65.229 103.455 65.0625 103.176 64.9443C102.896 64.8262 102.596 64.7671 102.273 64.7671H97.6489C96.6928 64.7671 95.7958 64.5845 94.9579 64.2192C94.1201 63.854 93.3842 63.3599 92.7504 62.7368C92.1274 62.103 91.6332 61.3672 91.268 60.5293C90.9028 59.6807 90.7202 58.7783 90.7202 57.8223ZM128.087 74H112.247V50.8936H128.087V55.5181H116.872V60.1426H124.461V64.7671H116.872V69.3755H128.087V74ZM135.95 74H131.326V50.8936H135.95V62.4468L144.555 50.8936H149.808L142.508 60.6421L149.808 74H144.555L139.479 64.6543L135.95 69.3755V74ZM161.651 74H157.042V55.5181H150.098V50.8936H168.58V55.5181H161.651V74ZM175.653 74H171.029V50.8936H175.653V74ZM202.595 62.5435C202.595 63.6392 202.45 64.6973 202.16 65.7178C201.88 66.7275 201.483 67.6782 200.967 68.5698C200.452 69.4507 199.829 70.2563 199.098 70.9868C198.368 71.7173 197.562 72.3457 196.681 72.8721C195.8 73.3877 194.85 73.7852 193.829 74.0645C192.809 74.3545 191.75 74.4995 190.655 74.4995C189.559 74.4995 188.501 74.3545 187.48 74.0645C186.471 73.7852 185.52 73.3877 184.628 72.8721C183.747 72.3457 182.942 71.7173 182.211 70.9868C181.481 70.2563 180.852 69.4507 180.326 68.5698C179.81 67.6782 179.408 66.7275 179.118 65.7178C178.838 64.6973 178.699 63.6392 178.699 62.5435C178.699 61.4478 178.838 60.3896 179.118 59.3691C179.408 58.3486 179.81 57.3979 180.326 56.5171C180.852 55.6362 181.481 54.8306 182.211 54.1001C182.942 53.3696 183.747 52.7466 184.628 52.231C185.52 51.7153 186.471 51.3179 187.48 51.0386C188.501 50.7485 189.559 50.6035 190.655 50.6035C191.75 50.6035 192.809 50.7485 193.829 51.0386C194.85 51.3179 195.8 51.7153 196.681 52.231C197.562 52.7466 198.368 53.3696 199.098 54.1001C199.829 54.8306 200.452 55.6362 200.967 56.5171C201.483 57.3979 201.88 58.3486 202.16 59.3691C202.45 60.3896 202.595 61.4478 202.595 62.5435ZM198.002 62.5435C198.002 61.5337 197.809 60.583 197.422 59.6914C197.036 58.7891 196.509 58.0103 195.843 57.355C195.188 56.689 194.409 56.1626 193.507 55.7759C192.615 55.3892 191.664 55.1958 190.655 55.1958C189.634 55.1958 188.678 55.3892 187.787 55.7759C186.895 56.1626 186.116 56.689 185.45 57.355C184.784 58.0103 184.258 58.7891 183.871 59.6914C183.484 60.583 183.291 61.5337 183.291 62.5435C183.291 63.5532 183.484 64.5039 183.871 65.3955C184.258 66.2764 184.784 67.0498 185.45 67.7158C186.116 68.3818 186.895 68.9082 187.787 69.2949C188.678 69.6816 189.634 69.875 190.655 69.875C191.664 69.875 192.615 69.6816 193.507 69.2949C194.409 68.9082 195.188 68.3818 195.843 67.7158C196.509 67.0498 197.036 66.2764 197.422 65.3955C197.809 64.5039 198.002 63.5532 198.002 62.5435ZM224.122 74H219.175L210.265 58.7891V74H205.64V50.8936H210.587L219.497 66.1206V50.8936H224.122V74ZM244.264 74H228.424V50.8936H244.264V55.5181H233.049V60.1426H240.638V64.7671H233.049V69.3755H244.264V74ZM265.984 74H261.038L252.127 58.7891V74H247.502V50.8936H252.449L261.36 66.1206V50.8936H265.984V74Z" fill="#E7E3D4" style="fill:#E7E3D4;fill:color(display-p3 0.9059 0.8902 0.8314);fill-opacity:1;"/>
<path d="M82.4254 6.34436H6.57464C5.22203 6.34436 4.12552 7.44042 4.12552 8.79248V72.2075C4.12552 73.5596 5.22203 74.6556 6.57464 74.6556H82.4254C83.778 74.6556 84.8745 73.5596 84.8745 72.2075V8.79248C84.8745 7.44042 83.778 6.34436 82.4254 6.34436Z" fill="#E7E3D4" style="fill:#E7E3D4;fill:color(display-p3 0.9059 0.8902 0.8314);fill-opacity:1;"/>
<path d="M24.3293 15.8085H9.06985V64.1201H24.3293V15.8085Z" fill="#43442C" style="fill:#43442C;fill:color(display-p3 0.2627 0.2667 0.1725);fill-opacity:1;"/>
<path d="M24.3293 15.8085V41.1019L48.3422 15.8085H24.3293Z" fill="#C747BB" style="fill:#C747BB;fill:color(display-p3 0.7804 0.2784 0.7333);fill-opacity:1;"/>
<path d="M24.3293 64.1172V39.9643L48.3422 64.1172H24.3293Z" fill="#C747BB" style="fill:#C747BB;fill:color(display-p3 0.7804 0.2784 0.7333);fill-opacity:1;"/>
<path d="M77.8124 26.73L70.5803 33.8411C72.188 34.6475 76.0058 36.8307 78.2993 41.2604C81.2815 47.0206 80.5871 54.4399 76.1671 59.4859C69.8081 66.7468 57.7843 66.7583 51.212 61.3148C47.6219 58.3425 46.406 54.3621 45.9536 52.274C48.2961 49.9037 50.6386 47.5333 52.9812 45.163C51.6068 44.1751 48.9531 41.9746 47.5009 38.2967C45.3082 32.7467 46.7633 26.1367 51.0536 21.8338C56.7989 16.0735 66.509 15.5724 72.5338 19.7745C75.6917 21.9778 77.1525 24.9962 77.8124 26.7271V26.73Z" fill="#C747BB" style="fill:#C747BB;fill:color(display-p3 0.7804 0.2784 0.7333);fill-opacity:1;"/>
</g>
</g>
<defs>
<clipPath id="clip0_2019_4256">
<rect width="270" height="82" fill="white" style="fill:white;fill-opacity:1;"/>
</clipPath>
</defs>
</svg>
