<svg xmlns="http://www.w3.org/2000/svg" xmlns:xlink="http://www.w3.org/1999/xlink" width="500" zoomAndPan="magnify" viewBox="0 0 375 225" height="300" preserveAspectRatio="xMidYMid meet" version="1.0"><defs><g/><clipPath id="6d2c201350"><rect x="0" width="57" y="0" height="69"/></clipPath><clipPath id="5419abd141"><rect x="0" width="262" y="0" height="103"/></clipPath><clipPath id="82892b488b"><path d="M 200.242188 69 L 347 69 L 347 177.738281 L 200.242188 177.738281 Z M 200.242188 69 " clip-rule="nonzero"/></clipPath></defs><g transform="matrix(1, 0, 0, 1, 318, 46)"><g clip-path="url(#6d2c201350)"><g fill="#292929" fill-opacity="1"><g transform="translate(8.206948, 19.98153)"><g><path d="M 7.296875 -6.625 L 6.46875 -4.609375 L 11.078125 -2.703125 L 10.203125 -0.609375 L 5.59375 -2.515625 L 3.890625 1.609375 L 1.203125 0.5 L 5.484375 -9.828125 L 13.25 -6.609375 L 12.375 -4.515625 Z M 7.296875 -6.625 "/></g></g></g><g fill="#292929" fill-opacity="1"><g transform="translate(20.488785, 26.266787)"><g><path d="M 3.09375 2.84375 L 0.953125 0.875 L 8.515625 -7.34375 L 10.65625 -5.375 Z M 3.09375 2.84375 "/></g></g></g><g fill="#292929" fill-opacity="1"><g transform="translate(26.962368, 32.557271)"><g><path d="M 6.6875 7.640625 L 4.5 8.765625 L 0.59375 1.15625 L 10.53125 -3.9375 L 11.859375 -1.359375 L 4.109375 2.609375 Z M 6.6875 7.640625 "/></g></g></g><g fill="#292929" fill-opacity="1"><g transform="translate(32.95026, 44.84043)"><g><path d="M 11 14.203125 L -0.171875 14.0625 L -0.140625 11.15625 L 4.546875 11.21875 C 5.035156 11.21875 5.609375 11.222656 6.265625 11.234375 C 6.921875 11.253906 7.53125 11.273438 8.09375 11.296875 C 7.53125 11.191406 6.925781 11.0625 6.28125 10.90625 C 5.632812 10.75 5.0625 10.601562 4.5625 10.46875 L -0.109375 9.171875 L -0.078125 6.1875 L 4.625 5 C 5.113281 4.875 5.6875 4.742188 6.34375 4.609375 C 7.007812 4.472656 7.625 4.363281 8.1875 4.28125 C 7.625 4.289062 7.015625 4.289062 6.359375 4.28125 C 5.703125 4.269531 5.128906 4.265625 4.640625 4.265625 L -0.046875 4.203125 L -0.015625 1.296875 L 11.15625 1.4375 L 11.09375 5.984375 L 2.734375 7.765625 L 11.046875 9.765625 Z M 11 14.203125 "/></g></g></g></g></g><g transform="matrix(1, 0, 0, 1, 3, 66)"><g clip-path="url(#5419abd141)"><g fill="#292929" fill-opacity="1"><g transform="translate(0.681057, 73.314677)"><g><path d="M 60.109375 0 L 56.9375 -39.609375 L 56.53125 -39.609375 L 42.84375 -0.40625 L 33.78125 -0.40625 L 20.09375 -39.609375 L 19.6875 -39.609375 L 16.53125 0 L 1.296875 0 L 7.296875 -66.828125 L 23.484375 -66.828125 L 38.3125 -28.265625 L 53.140625 -66.828125 L 69.34375 -66.828125 L 75.328125 0 Z M 60.109375 0 "/></g></g></g><g fill="#292929" fill-opacity="1"><g transform="translate(77.954135, 73.314677)"><g><path d="M 38.796875 -66.828125 L 65.765625 0 L 49.40625 0 L 44.46875 -13.359375 L 19.03125 -13.359375 L 14.09375 0 L -2.265625 0 L 24.703125 -66.828125 Z M 39.28125 -26.734375 L 31.828125 -46.171875 L 31.671875 -46.171875 L 24.21875 -26.734375 Z M 39.28125 -26.734375 "/></g></g></g><g fill="#292929" fill-opacity="1"><g transform="translate(142.105382, 73.314677)"><g><path d="M 65.6875 0 L 44.71875 0 L 20.09375 -28.34375 L 20.09375 0 L 4.859375 0 L 4.859375 -66.828125 L 20.09375 -66.828125 L 20.09375 -39.53125 L 43.015625 -66.828125 L 61.484375 -66.828125 L 34.59375 -35.15625 Z M 65.6875 0 "/></g></g></g><g fill="#292929" fill-opacity="1"><g transform="translate(206.49961, 73.314677)"><g><path d="M 29.484375 -68.046875 C 33.097656 -68.046875 36.632812 -67.515625 40.09375 -66.453125 C 43.550781 -65.398438 46.117188 -64.363281 47.796875 -63.34375 L 50.21875 -61.71875 L 44.0625 -49.578125 C 43.570312 -49.898438 42.894531 -50.316406 42.03125 -50.828125 C 41.175781 -51.335938 39.554688 -52.023438 37.171875 -52.890625 C 34.796875 -53.753906 32.582031 -54.1875 30.53125 -54.1875 C 28 -54.1875 26.039062 -53.644531 24.65625 -52.5625 C 23.28125 -51.488281 22.59375 -50.03125 22.59375 -48.1875 C 22.59375 -47.269531 22.914062 -46.421875 23.5625 -45.640625 C 24.21875 -44.859375 25.328125 -44.019531 26.890625 -43.125 C 28.453125 -42.238281 29.828125 -41.523438 31.015625 -40.984375 C 32.210938 -40.441406 34.050781 -39.632812 36.53125 -38.5625 C 40.851562 -36.71875 44.535156 -34.21875 47.578125 -31.0625 C 50.628906 -27.90625 52.15625 -24.328125 52.15625 -20.328125 C 52.15625 -16.492188 51.46875 -13.144531 50.09375 -10.28125 C 48.71875 -7.425781 46.828125 -5.1875 44.421875 -3.5625 C 42.023438 -1.945312 39.367188 -0.75 36.453125 0.03125 C 33.535156 0.820312 30.375 1.21875 26.96875 1.21875 C 24.050781 1.21875 21.1875 0.921875 18.375 0.328125 C 15.570312 -0.265625 13.222656 -1.003906 11.328125 -1.890625 C 9.441406 -2.785156 7.742188 -3.664062 6.234375 -4.53125 C 4.722656 -5.394531 3.617188 -6.125 2.921875 -6.71875 L 1.859375 -7.609375 L 9.484375 -20.40625 C 10.128906 -19.875 11.015625 -19.1875 12.140625 -18.34375 C 13.273438 -17.507812 15.285156 -16.390625 18.171875 -14.984375 C 21.066406 -13.578125 23.625 -12.875 25.84375 -12.875 C 32.269531 -12.875 35.484375 -15.0625 35.484375 -19.4375 C 35.484375 -20.351562 35.25 -21.203125 34.78125 -21.984375 C 34.320312 -22.773438 33.515625 -23.5625 32.359375 -24.34375 C 31.203125 -25.125 30.175781 -25.742188 29.28125 -26.203125 C 28.382812 -26.660156 26.925781 -27.363281 24.90625 -28.3125 C 22.882812 -29.257812 21.382812 -29.972656 20.40625 -30.453125 C 16.363281 -32.453125 13.234375 -34.945312 11.015625 -37.9375 C 8.796875 -40.9375 7.6875 -44.164062 7.6875 -47.625 C 7.6875 -53.625 9.898438 -58.523438 14.328125 -62.328125 C 18.765625 -66.140625 23.816406 -68.046875 29.484375 -68.046875 Z M 29.484375 -68.046875 "/></g></g></g></g></g><path fill="#292929" d="M 342.609375 106.894531 C 342.769531 109.058594 342.804688 110.398438 342.644531 110.417969 C 342.496094 110.4375 342.179688 109.128906 341.8125 106.996094 C 341.433594 104.859375 341.023438 101.910156 340.328125 98.71875 C 339.96875 97.128906 339.550781 95.636719 339.109375 94.304688 C 338.640625 92.976562 338.175781 91.804688 337.695312 90.847656 C 336.769531 88.960938 335.972656 87.835938 336.128906 87.734375 C 336.238281 87.660156 337.230469 88.5625 338.40625 90.464844 C 338.996094 91.398438 339.5625 92.589844 340.09375 93.945312 C 340.613281 95.304688 341.078125 96.84375 341.449219 98.476562 C 342.152344 101.738281 342.4375 104.738281 342.609375 106.894531 " fill-opacity="1" fill-rule="nonzero"/><path fill="#292929" d="M 334.726562 124.363281 C 338.875 123.023438 340.863281 117.90625 339.222656 113.90625 C 337.652344 110.109375 333.421875 108.78125 329.613281 109.859375 C 325.898438 110.90625 322.160156 114.195312 323.863281 118.492188 C 325.523438 122.6875 330.3125 125.304688 334.726562 124.363281 Z M 341.398438 114.050781 C 342.5625 119.046875 340.554688 124.425781 335.550781 126.210938 C 335.464844 126.261719 335.375 126.300781 335.261719 126.320312 C 335.152344 126.363281 335.054688 126.367188 334.957031 126.375 C 329.675781 127.316406 322.707031 124.023438 321.695312 118.296875 C 320.757812 112.984375 324.535156 108.578125 329.769531 107.742188 C 334.617188 106.976562 340.144531 108.707031 341.398438 114.050781 " fill-opacity="1" fill-rule="nonzero"/><path fill="#292929" d="M 339.347656 126.503906 C 339.503906 126.566406 339.191406 127.695312 338.699219 129.515625 C 338.207031 131.339844 337.5625 133.875 336.570312 136.628906 C 336.058594 138.003906 335.484375 139.289062 334.878906 140.414062 C 334.246094 141.523438 333.597656 142.488281 332.953125 143.226562 C 331.65625 144.71875 330.632812 145.304688 330.542969 145.207031 C 330.410156 145.085938 331.28125 144.230469 332.3125 142.726562 C 332.84375 141.976562 333.386719 141.015625 333.941406 139.921875 C 334.472656 138.824219 335.003906 137.574219 335.5 136.234375 C 336.464844 133.546875 337.230469 131.039062 337.9375 129.265625 C 338.621094 127.484375 339.203125 126.441406 339.347656 126.503906 " fill-opacity="1" fill-rule="nonzero"/><g clip-path="url(#82892b488b)"><path fill="#292929" d="M 211.796875 173.890625 C 211.210938 172.199219 210.65625 170.5 210.058594 168.8125 C 207.652344 167.890625 205.402344 166.558594 202.855469 166.140625 C 203.421875 167.96875 204.199219 169.738281 204.972656 171.480469 C 207.1875 171.746094 209.503906 172.941406 211.796875 173.890625 Z M 219.828125 174.128906 C 220.242188 173.855469 220.636719 173.554688 221.015625 173.238281 C 220.242188 171.5 218.488281 170.410156 217.539062 168.789062 C 216.328125 169.4375 215.003906 169.816406 213.585938 169.695312 C 212.785156 169.628906 212.019531 169.464844 211.277344 169.238281 C 211.875 170.945312 212.429688 172.667969 213.035156 174.375 C 215.382812 175.214844 217.691406 175.558594 219.828125 174.128906 Z M 225.667969 167.902344 C 224.441406 166.871094 223.40625 165.652344 222.382812 164.429688 C 222.304688 164.527344 222.222656 164.625 222.144531 164.722656 C 221.109375 165.96875 219.84375 167.296875 218.390625 168.269531 C 219.226562 169.855469 220.902344 170.960938 221.792969 172.558594 C 223.246094 171.199219 224.496094 169.570312 225.667969 167.902344 Z M 228.507812 163.703125 C 228.894531 163.148438 229.289062 162.570312 229.699219 161.976562 C 228.605469 160.898438 227.699219 159.667969 226.8125 158.417969 C 225.59375 160.1875 224.359375 161.941406 223.03125 163.625 C 224.042969 164.832031 225.054688 166.03125 226.246094 167.0625 C 227.019531 165.921875 227.765625 164.78125 228.507812 163.703125 Z M 233.050781 157.335938 C 232.5 155.808594 231.773438 154.207031 230.542969 153.140625 C 229.46875 154.570312 228.441406 156.046875 227.429688 157.53125 C 228.316406 158.785156 229.207031 160.027344 230.292969 161.121094 C 231.152344 159.882812 232.066406 158.589844 233.050781 157.335938 Z M 237.359375 152.652344 C 236.644531 151.023438 235.773438 149.488281 234.976562 147.902344 C 233.59375 149.292969 232.335938 150.773438 231.152344 152.320312 C 232.390625 153.375 233.183594 154.890625 233.78125 156.417969 C 234.890625 155.058594 236.074219 153.773438 237.359375 152.652344 Z M 243.636719 149.121094 C 242.882812 147.328125 242.128906 145.539062 241.238281 143.804688 C 239.214844 144.445312 237.371094 145.636719 235.742188 147.152344 C 235.742188 147.15625 235.742188 147.15625 235.742188 147.15625 C 236.535156 148.769531 237.425781 150.339844 238.167969 151.980469 C 239.828125 150.660156 241.640625 149.644531 243.636719 149.121094 Z M 249.144531 148.898438 C 248.796875 147.15625 248.414062 145.417969 247.695312 143.792969 C 247.316406 143.671875 246.921875 143.558594 246.5 143.480469 C 245.027344 143.195312 243.597656 143.246094 242.238281 143.535156 C 243.125 145.289062 243.882812 147.097656 244.632812 148.902344 C 244.648438 148.902344 244.65625 148.902344 244.671875 148.898438 C 246.15625 148.65625 247.671875 148.660156 249.144531 148.898438 Z M 254.199219 150.820312 C 253.90625 149.898438 253.65625 148.960938 253.589844 147.996094 C 252.199219 146.570312 250.804688 145.199219 248.988281 144.308594 C 249.554688 145.859375 249.898438 147.484375 250.21875 149.105469 C 251.625 149.453125 252.960938 150.027344 254.199219 150.820312 Z M 261.480469 157.402344 C 261.273438 155.996094 260.765625 154.632812 260.273438 153.28125 C 259.265625 152.75 258.308594 152.167969 257.410156 151.515625 C 256.449219 150.832031 255.609375 150.050781 254.808594 149.246094 C 255.007812 150.132812 255.324219 151 255.636719 151.859375 C 257.175781 153.140625 258.441406 154.613281 259.867188 156.039062 C 260.386719 156.535156 260.921875 156.992188 261.480469 157.402344 Z M 267.277344 160.378906 C 267.542969 160.472656 267.8125 160.566406 268.078125 160.664062 C 267.449219 159.015625 266.921875 157.335938 266.1875 155.730469 C 264.625 155.230469 263.066406 154.644531 261.578125 153.9375 C 262.066406 155.3125 262.492188 156.703125 262.574219 158.148438 C 264.035156 159.0625 265.621094 159.761719 267.277344 160.378906 Z M 273.257812 127.742188 C 273.132812 125.257812 273.179688 122.765625 273.378906 120.308594 C 272.074219 119.933594 270.792969 119.433594 269.460938 119.199219 C 269.355469 121.75 269.445312 124.335938 269.714844 126.875 C 270.882812 127.21875 272.078125 127.4375 273.257812 127.742188 Z M 274.453125 136.484375 C 273.882812 133.964844 273.511719 131.398438 273.324219 128.816406 C 272.171875 128.492188 271 128.277344 269.855469 127.960938 C 270.191406 130.601562 270.726562 133.171875 271.457031 135.582031 C 271.503906 135.757812 271.566406 135.929688 271.628906 136.101562 C 272.582031 136.078125 273.535156 136.21875 274.453125 136.484375 Z M 273.5625 118.386719 C 273.816406 116.214844 274.175781 114.015625 274.625 111.8125 C 273.292969 111.347656 271.882812 111.207031 270.488281 110.996094 C 269.980469 113.304688 269.648438 115.722656 269.507812 118.1875 C 270.863281 118.425781 272.148438 118.890625 273.472656 119.28125 C 273.5 118.980469 273.53125 118.683594 273.5625 118.386719 Z M 276.054688 162.835938 C 275.4375 160.933594 274.578125 159.117188 273.984375 157.210938 C 272.425781 157.148438 270.882812 156.992188 269.355469 156.617188 C 268.730469 156.464844 268.089844 156.292969 267.453125 156.109375 C 268.132812 157.75 268.667969 159.449219 269.335938 161.09375 C 271.503906 161.820312 273.765625 162.441406 276.054688 162.835938 Z M 274.835938 110.816406 C 275.335938 108.566406 275.949219 106.3125 276.664062 104.089844 C 275.425781 103.777344 274.175781 103.46875 272.945312 103.109375 C 272.253906 104.894531 271.648438 106.691406 271.121094 108.488281 C 270.976562 108.988281 270.839844 109.496094 270.710938 110.007812 C 272.101562 110.214844 273.511719 110.359375 274.835938 110.816406 Z M 276.992188 103.128906 C 277.585938 101.378906 278.253906 99.660156 278.996094 97.972656 C 277.875 97.65625 276.746094 97.371094 275.648438 96.964844 C 274.800781 98.667969 274.023438 100.40625 273.320312 102.160156 C 274.53125 102.511719 275.765625 102.816406 276.992188 103.128906 Z M 278.5 147.660156 C 278.644531 147.800781 278.800781 147.933594 278.957031 148.074219 C 277.0625 144.828125 275.675781 141.300781 274.734375 137.636719 C 273.832031 137.339844 272.910156 137.144531 271.960938 137.121094 C 273.355469 141.082031 275.414062 144.722656 278.5 147.660156 Z M 282.890625 90.601562 C 281.722656 90.449219 280.160156 90.410156 279.378906 90.398438 C 278.207031 92.222656 277.121094 94.117188 276.117188 96.054688 C 277.203125 96.433594 278.3125 96.714844 279.417969 97.03125 C 280.4375 94.8125 281.59375 92.660156 282.890625 90.601562 Z M 283.820312 163.125 C 283.945312 163.105469 284.074219 163.085938 284.203125 163.066406 C 283.613281 161 282.9375 158.96875 281.875 157.089844 C 279.601562 157.113281 277.320312 157.257812 275.0625 157.234375 C 275.699219 159.1875 276.589844 161.042969 277.171875 163.011719 C 279.394531 163.324219 281.636719 163.402344 283.820312 163.125 Z M 287.101562 84.851562 C 286.023438 84.589844 284.933594 84.4375 283.851562 84.226562 C 282.507812 85.867188 281.238281 87.585938 280.039062 89.382812 C 281.335938 89.390625 282.339844 89.460938 283.476562 89.679688 C 284.585938 87.992188 285.792969 86.375 287.101562 84.851562 Z M 285.207031 162.910156 C 286.5 162.6875 287.78125 162.394531 289.058594 162.128906 C 288.078125 160.367188 286.953125 158.730469 285.601562 157.234375 C 285.339844 157.210938 285.070312 157.183594 284.804688 157.167969 C 284.21875 157.160156 283.625 157.179688 283.035156 157.101562 C 284.003906 158.941406 284.648438 160.910156 285.207031 162.910156 Z M 292.28125 79.769531 C 291.648438 79.5625 291.023438 79.371094 290.371094 79.230469 C 288.210938 80.378906 286.101562 81.726562 284.605469 83.339844 C 285.691406 83.539062 286.785156 83.714844 287.851562 84.003906 C 289.222656 82.484375 290.695312 81.070312 292.28125 79.769531 Z M 293.492188 161.492188 C 293.769531 161.484375 294.050781 161.46875 294.324219 161.453125 C 291.976562 160.667969 289.734375 159.527344 287.660156 158.007812 C 287.605469 157.964844 287.542969 157.925781 287.472656 157.882812 C 288.460938 159.148438 289.335938 160.5 290.109375 161.929688 C 291.234375 161.714844 292.355469 161.550781 293.492188 161.492188 Z M 297.964844 75.917969 C 297.984375 75.90625 298 75.894531 298.027344 75.882812 C 297.988281 75.863281 297.964844 75.835938 297.945312 75.8125 C 296.890625 76.167969 295.847656 76.570312 294.847656 77.042969 C 293.878906 77.496094 292.816406 77.988281 291.742188 78.535156 C 292.171875 78.652344 292.605469 78.792969 293.039062 78.949219 C 293.101562 78.96875 293.152344 79.007812 293.203125 79.046875 C 294.699219 77.898438 296.273438 76.839844 297.964844 75.917969 Z M 310.257812 71.394531 C 309.8125 71.347656 309.359375 71.304688 308.90625 71.300781 C 305.789062 71.234375 302.648438 71.613281 299.632812 72.4375 C 294.050781 73.964844 288.558594 76.476562 284.140625 80.308594 C 275.648438 87.6875 270.128906 98.554688 267.855469 109.484375 C 265.394531 121.328125 265.621094 134.296875 272.394531 144.777344 C 273.984375 147.222656 275.796875 149.601562 278.046875 151.496094 C 279.601562 152.8125 281.972656 155.214844 284.195312 154.96875 C 282.90625 153.671875 281.75 152.277344 280.707031 150.804688 C 278.539062 148.929688 276.21875 147.15625 274.660156 144.785156 C 272.230469 141.105469 270.535156 137.085938 269.730469 132.734375 C 268.875 128.125 268.410156 123.402344 268.578125 118.714844 C 268.539062 118.585938 268.542969 118.445312 268.59375 118.332031 C 268.710938 115.671875 269.035156 113.027344 269.605469 110.429688 C 269.617188 110.382812 269.632812 110.332031 269.644531 110.285156 C 269.972656 108.835938 270.375 107.394531 270.875 105.980469 C 272.394531 101.664062 274.195312 97.4375 276.472656 93.464844 C 278.597656 89.761719 280.957031 85.121094 284.25 82.296875 C 289.871094 77.476562 296.640625 75.050781 303.636719 73.300781 C 305.796875 72.488281 308.019531 71.839844 310.257812 71.394531 Z M 315.785156 158.542969 C 344.519531 147.078125 351.457031 106.824219 336.25 82.34375 C 332.03125 76.035156 325.570312 73.039062 318.601562 72.652344 C 318.550781 72.660156 318.492188 72.664062 318.441406 72.664062 C 318.078125 72.660156 317.710938 72.640625 317.351562 72.605469 C 314.375 72.582031 311.320312 73.007812 308.335938 73.847656 C 297.8125 76.796875 289.511719 83.496094 283.980469 92.898438 C 275.414062 107.453125 271.570312 127.703125 278.941406 143.5625 C 281.015625 148.027344 283.9375 152.386719 287.78125 155.5625 C 287.851562 155.609375 287.914062 155.65625 287.96875 155.71875 C 288.183594 155.894531 288.40625 156.070312 288.636719 156.242188 C 290.75 157.789062 292.640625 158.796875 295.261719 159.46875 C 295.511719 159.527344 295.6875 159.65625 295.800781 159.824219 C 302.289062 161.675781 309.558594 161.019531 315.785156 158.542969 Z M 338.011719 81.324219 C 352.808594 105.152344 347.539062 142.855469 322.128906 157.683594 C 316.414062 161.007812 309.558594 163.003906 302.875 162.886719 C 302.792969 162.925781 302.703125 162.949219 302.609375 162.957031 C 298.882812 163.4375 295.03125 163.089844 291.332031 163.785156 C 288.484375 164.320312 285.523438 165.269531 282.597656 165.238281 C 277.484375 165.183594 272.515625 164.460938 267.703125 162.691406 C 263.027344 160.964844 259.945312 158.84375 256.472656 155.332031 C 252.902344 151.722656 247.617188 149.183594 242.667969 151.695312 C 235.132812 155.519531 231.003906 164.039062 226.105469 170.546875 C 223.835938 173.558594 221.359375 176.4375 217.457031 177.074219 C 212.734375 177.847656 208.917969 173.601562 204.304688 173.457031 C 203.910156 173.441406 203.628906 173.242188 203.472656 172.976562 C 203.417969 172.910156 203.359375 172.828125 203.3125 172.730469 C 202.238281 170.304688 201.117188 167.84375 200.503906 165.257812 C 200.378906 164.746094 200.632812 164.351562 200.988281 164.148438 C 201.144531 164.035156 201.347656 163.964844 201.589844 163.972656 C 203.453125 164.035156 205.179688 164.414062 206.875 165.214844 C 209.28125 166.363281 212.253906 168.335938 215.058594 167.535156 C 219.40625 166.269531 222.011719 161.683594 224.464844 158.179688 C 228.242188 152.769531 232.167969 145.925781 238.277344 142.832031 C 245.214844 139.300781 251.601562 142.457031 256.476562 147.828125 C 260.105469 151.824219 266.707031 154.613281 272.101562 154.984375 C 274.507812 155.148438 276.90625 155.089844 279.308594 155.054688 C 275.589844 152.289062 272.363281 148.917969 270.066406 144.84375 C 263.871094 133.851562 263.148438 121.105469 265.898438 108.953125 C 268.527344 97.324219 274.207031 85.804688 283.570312 78.160156 C 288.007812 74.542969 293.535156 71.824219 299.09375 70.472656 C 302.175781 69.730469 305.714844 68.9375 308.90625 69.265625 C 312.109375 69.601562 315.203125 70.601562 318.441406 70.636719 C 318.617188 70.636719 318.765625 70.679688 318.890625 70.746094 C 326.335938 71.15625 333.308594 74.285156 338.011719 81.324219 " fill-opacity="1" fill-rule="nonzero"/></g><path fill="#292929" d="M 326.4375 104.019531 C 329.957031 101.484375 332.644531 96.785156 331.992188 92.351562 C 331.003906 87.917969 327.457031 84.652344 322.871094 87.054688 C 319.023438 89.054688 316.695312 92.996094 316.53125 97.335938 C 316.414062 100.300781 317.121094 103.511719 320.171875 104.796875 C 322.300781 105.699219 324.570312 105.367188 326.4375 104.019531 Z M 333.976562 92.066406 C 334.699219 97.9375 331.042969 104.429688 325.585938 106.757812 C 319.785156 109.234375 314.242188 104.035156 314.464844 98.195312 C 314.675781 92.589844 317.417969 86.488281 323.214844 84.726562 C 328.679688 83.066406 332.632812 86.378906 333.886719 91.582031 C 333.914062 91.648438 333.933594 91.726562 333.949219 91.808594 C 333.96875 91.902344 333.976562 91.984375 333.976562 92.066406 " fill-opacity="1" fill-rule="nonzero"/><path fill="#292929" d="M 327.355469 140.792969 C 328.242188 137.007812 326.808594 133.628906 322.859375 132.542969 C 319.992188 131.765625 316.207031 131.875 313.863281 133.964844 C 310.382812 137.066406 311.34375 142.851562 313.945312 146.273438 C 318.980469 152.917969 325.4375 146.457031 327.355469 140.792969 Z M 323.398438 130.589844 C 328.292969 132.195312 330.414062 136.136719 329.367188 141.0625 C 329.355469 141.152344 329.34375 141.238281 329.308594 141.328125 C 329.289062 141.414062 329.261719 141.488281 329.226562 141.566406 C 327.453125 146.472656 321.203125 154.539062 315.261719 150.320312 C 310.527344 146.964844 307.5 139.027344 311.167969 133.867188 C 313.734375 130.257812 319.375 129.265625 323.398438 130.589844 " fill-opacity="1" fill-rule="nonzero"/><path fill="#292929" d="M 326.160156 78.804688 C 326.742188 79.265625 327.035156 79.546875 326.988281 79.609375 C 326.9375 79.667969 326.5625 79.515625 325.921875 79.171875 C 325.296875 78.824219 324.359375 78.367188 323.191406 77.859375 C 322.59375 77.636719 321.960938 77.347656 321.234375 77.148438 C 320.878906 77.042969 320.515625 76.914062 320.136719 76.8125 C 319.746094 76.730469 319.347656 76.636719 318.933594 76.546875 C 317.296875 76.222656 315.460938 76.046875 313.53125 76.132812 C 309.65625 76.332031 306.265625 77.457031 303.886719 78.394531 C 301.515625 79.347656 300.070312 80.109375 299.980469 79.945312 C 299.925781 79.824219 301.195312 78.839844 303.554688 77.65625 C 305.898438 76.507812 309.398438 75.199219 313.476562 74.988281 C 315.511719 74.898438 317.449219 75.117188 319.167969 75.515625 C 319.59375 75.636719 320.007812 75.738281 320.40625 75.847656 C 320.804688 75.972656 321.183594 76.117188 321.546875 76.257812 C 322.292969 76.5 322.929688 76.855469 323.53125 77.128906 C 324.699219 77.75 325.597656 78.328125 326.160156 78.804688 " fill-opacity="1" fill-rule="nonzero"/><path fill="#292929" d="M 316.625 118.378906 C 316.644531 117.972656 316.632812 116.816406 316.050781 116.734375 C 315.390625 116.636719 314.71875 118.074219 314.5625 118.535156 C 314.433594 118.902344 314.273438 119.371094 314.417969 119.757812 C 314.5625 120.105469 315.027344 120.078125 315.359375 120.042969 C 316.175781 119.886719 316.585938 119.175781 316.625 118.378906 Z M 316.101562 115.722656 C 317.285156 115.769531 317.6875 117.308594 317.640625 118.253906 C 317.578125 119.515625 316.957031 120.792969 315.609375 121.027344 C 315.582031 121.03125 315.5625 121.027344 315.535156 121.027344 C 315.515625 121.03125 315.5 121.039062 315.476562 121.042969 C 313.785156 121.230469 313 119.933594 313.535156 118.398438 C 313.902344 117.335938 314.769531 115.675781 316.101562 115.722656 " fill-opacity="1" fill-rule="nonzero"/><path fill="#292929" d="M 308.191406 128.402344 C 318.351562 131.332031 323.886719 113.601562 315.371094 108.734375 C 304.679688 102.605469 298.789062 124.023438 308.191406 128.402344 Z M 315.367188 107.089844 C 325.496094 112.890625 320.21875 133.414062 307.769531 129.769531 C 307.722656 129.753906 307.691406 129.726562 307.65625 129.707031 C 307.632812 129.703125 307.617188 129.703125 307.597656 129.691406 C 302.34375 127.371094 301.3125 120 302.578125 114.984375 C 303.871094 109.875 309.515625 103.746094 315.367188 107.089844 " fill-opacity="1" fill-rule="nonzero"/><path fill="#292929" d="M 310.433594 112.804688 C 311.824219 114.234375 313.882812 111.957031 313 110.464844 C 311.917969 108.976562 309.175781 111.496094 310.433594 112.804688 Z M 313.882812 109.953125 C 314.636719 111.222656 314.132812 112.824219 313.015625 113.707031 C 311.980469 114.523438 310.320312 114.449219 309.542969 113.296875 C 307.882812 110.816406 311.777344 107.539062 313.734375 109.792969 C 313.789062 109.832031 313.839844 109.878906 313.882812 109.953125 " fill-opacity="1" fill-rule="nonzero"/><path fill="#292929" d="M 310.457031 126.542969 C 312.316406 126.585938 312.683594 122.648438 311.160156 122.832031 C 310.28125 122.9375 309.699219 123.699219 309.570312 124.523438 C 309.4375 125.335938 309.546875 126.332031 310.457031 126.542969 Z M 311.417969 121.816406 C 314.339844 121.949219 313.292969 127.777344 310.394531 127.5625 C 310.367188 127.5625 310.347656 127.546875 310.320312 127.539062 C 310.300781 127.539062 310.28125 127.546875 310.257812 127.546875 C 308.660156 127.269531 308.296875 125.464844 308.613281 124.105469 C 308.921875 122.832031 310.050781 121.75 311.417969 121.816406 " fill-opacity="1" fill-rule="nonzero"/><path fill="#292929" d="M 309.546875 155.203125 C 309.570312 155.277344 309.171875 155.445312 308.414062 155.707031 C 307.660156 155.988281 306.53125 156.21875 305.109375 156.40625 C 304.402344 156.46875 303.609375 156.570312 302.78125 156.582031 C 302.371094 156.605469 301.945312 156.617188 301.503906 156.628906 C 301.050781 156.625 300.582031 156.609375 300.109375 156.605469 C 298.214844 156.515625 296.109375 156.179688 294.035156 155.363281 C 291.964844 154.550781 290.195312 153.320312 288.800781 152.023438 C 287.390625 150.734375 286.335938 149.378906 285.515625 148.21875 C 283.902344 145.863281 283.191406 144.265625 283.304688 144.191406 C 283.457031 144.097656 284.429688 145.558594 286.15625 147.730469 C 287.042969 148.808594 288.128906 150.054688 289.496094 151.242188 C 290.867188 152.425781 292.523438 153.542969 294.453125 154.300781 C 298.332031 155.832031 302.289062 155.664062 305.046875 155.601562 C 306.421875 155.519531 307.546875 155.410156 308.308594 155.269531 C 309.082031 155.15625 309.527344 155.121094 309.546875 155.203125 " fill-opacity="1" fill-rule="nonzero"/><path fill="#292929" d="M 306.363281 119.554688 C 307.355469 120.042969 308.023438 118.820312 308.019531 117.980469 C 308.019531 117.222656 307.722656 115.972656 306.816406 115.804688 C 305.757812 115.609375 305.269531 116.703125 305.234375 117.574219 C 305.269531 118.296875 305.679688 119.21875 306.363281 119.554688 Z M 306.710938 114.757812 C 308.214844 114.800781 309.128906 116.65625 309.035156 117.980469 C 308.945312 119.238281 308.097656 120.96875 306.550781 120.675781 C 305.15625 120.414062 304.285156 118.90625 304.21875 117.574219 C 304.28125 116.136719 305.140625 114.722656 306.710938 114.757812 " fill-opacity="1" fill-rule="nonzero"/><path fill="#292929" d="M 304.382812 143.828125 C 305.644531 140.359375 305.277344 135.089844 302.390625 132.472656 C 297.488281 128.023438 289.90625 134.386719 289.652344 139.871094 C 289.46875 143.769531 291.171875 148.253906 295.445312 149.148438 C 299.601562 150.019531 302.636719 147.347656 304.382812 143.828125 Z M 302.601562 130.039062 C 306.863281 133.1875 308.136719 139.652344 306.296875 144.496094 C 306.285156 144.53125 306.265625 144.558594 306.246094 144.589844 C 306.230469 144.640625 306.21875 144.6875 306.199219 144.734375 C 303.871094 149.535156 299.136719 152.71875 293.785156 150.738281 C 288.925781 148.945312 286.410156 142.679688 287.925781 137.851562 C 289.554688 132.671875 296.921875 125.839844 302.601562 130.039062 " fill-opacity="1" fill-rule="nonzero"/><path fill="#292929" d="M 299.207031 106.316406 C 308.191406 106.269531 311.996094 92.15625 304.097656 87.65625 C 298.640625 84.539062 290.824219 88.328125 290.710938 94.871094 C 290.605469 100.324219 293.210938 105.792969 299.207031 106.316406 Z M 303.289062 84.992188 C 315.035156 88.722656 311.066406 107.949219 299.5 108.335938 C 299.410156 108.347656 299.316406 108.359375 299.207031 108.347656 C 299.101562 108.347656 299.007812 108.335938 298.917969 108.308594 C 291.757812 107.515625 288.191406 100.894531 288.738281 94.078125 C 289.292969 87.167969 296.980469 82.988281 303.289062 84.992188 " fill-opacity="1" fill-rule="nonzero"/><path fill="#292929" d="M 298.496094 121.613281 C 300.941406 114.117188 290.648438 107.3125 284.421875 112.109375 C 279.71875 115.707031 278.878906 127.136719 286.820312 126.964844 C 291.300781 126.863281 296.390625 126.066406 298.496094 121.613281 Z M 281.320312 112.363281 C 288.101562 103.765625 304.09375 111.523438 300.425781 122.257812 C 300.40625 122.324219 300.378906 122.378906 300.34375 122.433594 C 300.339844 122.453125 300.332031 122.480469 300.324219 122.5 C 299.054688 125.320312 296.617188 127.214844 293.648438 128.054688 C 290.980469 128.804688 286.726562 129.796875 284.046875 128.671875 C 277.761719 126.035156 277.429688 117.277344 281.320312 112.363281 " fill-opacity="1" fill-rule="nonzero"/><path fill="#292929" d="M 286.105469 94.675781 C 286.234375 94.800781 285.683594 95.535156 285.007812 96.816406 C 284.660156 97.445312 284.300781 98.238281 283.953125 99.125 C 283.582031 100.011719 283.300781 101.007812 282.921875 102.113281 C 282.125 104.289062 281.246094 106.097656 280.78125 107.484375 C 280.300781 108.800781 280.183594 109.765625 280.007812 109.742188 C 279.875 109.730469 279.6875 108.820312 280.003906 107.269531 C 280.289062 105.769531 281.082031 103.8125 281.839844 101.734375 C 282.207031 100.695312 282.542969 99.613281 282.984375 98.710938 C 283.410156 97.796875 283.855469 97 284.316406 96.382812 C 285.222656 95.144531 286.003906 94.582031 286.105469 94.675781 " fill-opacity="1" fill-rule="nonzero"/><path fill="#292929" d="M 279.847656 138.171875 C 280.148438 139.226562 280.152344 139.933594 280.003906 139.964844 C 279.847656 139.996094 279.570312 139.402344 279.09375 138.457031 C 278.855469 137.972656 278.578125 137.398438 278.316406 136.707031 C 278.253906 136.53125 278.199219 136.355469 278.136719 136.171875 C 278.078125 135.972656 278.03125 135.769531 277.980469 135.5625 C 277.917969 135.347656 277.914062 135.171875 277.871094 134.964844 C 277.855469 134.859375 277.84375 134.804688 277.832031 134.644531 L 277.824219 134.332031 C 277.699219 130.980469 278.109375 128.375 278.398438 128.363281 C 278.738281 128.363281 278.847656 131.0625 278.960938 134.25 L 278.964844 134.550781 C 278.964844 134.582031 278.988281 134.730469 279 134.808594 C 279.027344 135.003906 279.042969 135.226562 279.085938 135.378906 C 279.117188 135.550781 279.152344 135.722656 279.183594 135.882812 C 279.230469 136.054688 279.277344 136.21875 279.316406 136.386719 C 279.511719 137.039062 279.707031 137.640625 279.847656 138.171875 " fill-opacity="1" fill-rule="nonzero"/></svg>