<svg width="113" height="109" viewBox="0 0 113 109" fill="none" xmlns="http://www.w3.org/2000/svg">
<mask id="mask0_69_2399" style="mask-type:luminance" maskUnits="userSpaceOnUse" x="0" y="0" width="113" height="109">
<path d="M0 0H113V109H0V0Z" fill="white"/>
</mask>
<g mask="url(#mask0_69_2399)">
<path d="M17.9529 0.267196C17.1966 0.22718 16.4448 0.259193 15.6947 0.361637C14.9445 0.465681 14.2098 0.638555 13.492 0.881858C12.7727 1.12356 12.0812 1.43249 11.4159 1.80545C10.7522 2.18001 10.1255 2.6138 9.53737 3.10681C8.77176 3.84792 8.04474 4.62905 7.3594 5.4486C6.67251 6.26975 6.03039 7.12612 5.43148 8.0177C4.83412 8.90928 4.28307 9.83127 3.77986 10.7837C3.27666 11.7361 2.82285 12.7141 2.41998 13.7161C2.01711 14.7181 1.66672 15.7394 1.36881 16.7798C1.0709 17.8203 0.827018 18.8751 0.637159 19.9412C0.4473 21.0088 0.31301 22.0845 0.234288 23.1665C0.155566 24.2486 0.130869 25.3323 0.163284 26.4175C0.357773 29.0811 0.743666 31.7142 1.3225 34.3185C1.90134 36.9212 2.66695 39.4647 3.61625 41.9489C4.56708 44.4316 5.69234 46.8278 6.99203 49.136C8.29171 51.4442 9.75347 53.6371 11.3727 55.7164L12.0627 56.7921C14.9754 61.4949 18.1906 65.9656 21.7084 70.201C25.2277 74.438 29.0157 78.3997 33.0722 82.086C37.1271 85.7724 41.4136 89.1482 45.927 92.2119C50.4404 95.2772 55.1406 98 60.0229 100.382C64.4421 102.6 69.0157 104.401 73.7421 105.784C78.4685 107.167 83.2752 108.11 88.1637 108.614C89.9403 108.601 91.6892 108.368 93.4102 107.913C100.333 106.423 109.023 101.065 111.035 95.0996C111.813 93.1547 112.361 91.1427 112.679 89.0634C112.998 86.9841 113.078 84.8952 112.921 82.7967C112.044 82.2765 111.144 81.8059 110.221 81.3817L108.526 80.4821C100.62 76.5685 90.9019 71.632 88.9771 70.8428C88.4122 70.6684 87.8364 70.5723 87.2483 70.5563C86.9844 70.5531 86.7266 70.5867 86.4719 70.6572C86.2172 70.7276 85.9764 70.8332 85.7495 70.9725C85.5226 71.1117 85.3189 71.2798 85.1367 71.4767C84.9546 71.6736 84.8033 71.8929 84.6798 72.1346L83.5499 73.8041C81.4152 77.0231 79.123 80.1156 76.6718 83.0832C76.3554 83.4002 76.0173 83.6931 75.6592 83.9588C75.3011 84.2261 74.926 84.4646 74.5324 84.6743C74.1403 84.8824 73.7359 85.0617 73.3192 85.209C72.9008 85.3578 72.4748 85.4731 72.0411 85.5563C71.6073 85.6379 71.169 85.6876 70.729 85.7052C70.2876 85.7212 69.8477 85.7036 69.4093 85.6539C68.9709 85.6027 68.5372 85.5195 68.1112 85.4026C67.6836 85.2858 67.2684 85.1385 66.8624 84.9576L65.9934 84.5495C61.7208 82.7727 57.6334 80.6166 53.7344 78.0811C49.8353 75.5472 46.1848 72.6756 42.7827 69.4647C36.1917 63.182 30.621 56.0461 26.0736 48.0571C25.8544 47.6922 25.6692 47.3096 25.5164 46.9095C25.3636 46.5109 25.2447 46.0995 25.1614 45.6785C25.0796 45.2575 25.0317 44.8334 25.0224 44.4028C25.0116 43.9738 25.0379 43.5464 25.0996 43.1222C25.1629 42.6965 25.2617 42.2803 25.3944 41.8737C25.5287 41.4671 25.6954 41.075 25.8961 40.6988C26.0968 40.3226 26.3268 39.9673 26.5892 39.6328C26.85 39.2998 27.1371 38.9909 27.4505 38.7092C28.2794 37.6095 29.1885 36.5883 30.178 35.6423C30.6812 34.9476 31.3079 34.3745 31.8388 33.7022C33.0135 32.4745 33.9829 31.0915 34.7469 29.5549C34.9013 28.9994 34.9383 28.4376 34.8596 27.8661C34.7809 27.2947 34.5926 26.7649 34.2947 26.2767C33.7297 25.2138 31.4144 19.1664 27.9923 10.7597L25.3049 3.84792C23.9219 0.384046 23.5144 0.342428 21.1481 0.342428H20.33C19.6292 0.302411 18.7602 0.267196 17.9529 0.267196Z" fill="#EED505"/>
</g>
</svg>
